<svg id="Log01.svg" xmlns="http://www.w3.org/2000/svg" width="434" height="205" viewBox="0 0 434 205"><path fill="#fff" d="M0 0h434v205H0z"/><path id="Shape_1_copy" data-name="Shape 1 copy" d="M803.6 769.818v41.895h-13.751v-41.895h-11.193v-11.484H815v11.484h-11.4zm-60.183-11.484h30.126v11.484h-16.374v9.256h15.477v11.483h-15.477v9.605h16.374v11.551h-30.126v-53.379zm-162.1 53.379L568.2 791.252v20.461h-13.756v-53.379h21.42c6.219 0 10.847 1.88 13.887 5.708a16.576 16.576 0 013.593 10.717c0 4.733-1.381 8.49-4.145 11.344a14.7 14.7 0 01-7.393 3.758l16.582 21.852h-17.066zm-4.352-40.99c-1.244-1.253-3.317-1.811-6.219-1.811H568.2v13.364h2.556q4.353 0 6.219-1.88a6.681 6.681 0 00-.005-9.673zm-45.741 31.666h-19l-3.662 9.324h-14.506l20.383-53.379h14.993l19.9 53.379h-14.717zm-9.4-27.56l-5.873 17.051h11.607zm-32.89 36.884h-13.74v-41.895H464v-11.484h36.412v11.484h-11.47v41.895z" transform="translate(-422 -683)" fill-rule="evenodd" fill="#1d1d1d"/><path d="M669 834.984a48.761 48.761 0 01-48.157-42.1h-22.386v-13.716h22.388a48.529 48.529 0 0186.781-22.968l-10.847 8.212a35.016 35.016 0 00-62.185 14.753 38.1 38.1 0 000 13.712 35.073 35.073 0 0068.888 0h-14.028a21.5 21.5 0 01-40.833 0 21.8 21.8 0 010-13.712 21.472 21.472 0 0140.833 0H738.3v13.715h-21.069A48.779 48.779 0 01669 834.984zm4.147-55.816a8.155 8.155 0 00-8.222 0 8.025 8.025 0 00-3.8 6.821 8.144 8.144 0 003.8 6.891 8.148 8.148 0 008.222 0 8.143 8.143 0 003.8-6.891 8.024 8.024 0 00-3.798-6.821z" transform="translate(-422 -683)" fill="#ffcd3f" fill-rule="evenodd"/></svg>