<svg id="Log03.svg" xmlns="http://www.w3.org/2000/svg" width="434" height="205" viewBox="0 0 434 205"><defs><style>.cls-2{fill:#1d1d1d;fill-rule:evenodd}</style></defs><path id="Rectangle_1_copy_2" data-name="Rectangle 1 copy 2" fill="#fff" d="M0 0h434v205H0z"/><path id="Shape_3_copy" data-name="Shape 3 copy" class="cls-2" d="M1772.67 832.049a3.777 3.777 0 01-1.23 2 5.992 5.992 0 01-2.93 1.11 4.684 4.684 0 013.32 1.343 3.345 3.345 0 01.74 1.685 32.639 32.639 0 01.16 4.163v2.27h-7.25v-1.306a19.352 19.352 0 00-.15-2.9 2.624 2.624 0 00-.56-1.337 1.947 1.947 0 00-1.12-.544 23.625 23.625 0 00-3-.115h-10.37v6.207h-7.36v-24.41h17.78q6.27.016 7.5.134a5.434 5.434 0 012.39.83 4.278 4.278 0 011.89 2.319 14.967 14.967 0 01.52 4.639 16.756 16.756 0 01-.33 3.912zm-7.27-4.613a1.493 1.493 0 00-.77-.855 2.587 2.587 0 00-.93-.215q-.54-.036-3.09-.054h-10.33v6.006h10.35c1.81-.037 2.88-.067 3.23-.1a1.962 1.962 0 00.9-.28 1.7 1.7 0 00.67-.9 6.736 6.736 0 00.19-1.819 5.379 5.379 0 00-.22-1.783zm-80.8-51.7l-47.68.321v1.914h.32a3.809 3.809 0 01-1.29 1.376h-.02c-.07.013-.14.025-.2.039l-.04.007c-.06.014-.13.029-.2.043l-.03.008-.2.05-.02.006c-.07.017-.13.035-.2.054l-.03.01c-.07.018-.13.037-.2.058l-.02.008c-.07.02-.13.042-.2.064l-.03.011c-.06.02-.12.042-.18.064l-.04.015-.18.071-.03.01-.18.076-.04.016-.18.08-.02.01c-.07.029-.13.057-.19.087l-.03.015q-.09.043-.18.09l-.02.01c-.06.032-.12.064-.18.1l-.02.012-.18.1-.02.01q-.09.052-.18.108l-.02.009-.18.113-.01.008-.18.119v.006c-.07.042-.13.083-.19.127l-.18.132c-.06.042-.11.084-.17.129l-.02.015c-.05.042-.1.087-.16.13l-.01.013a1.838 1.838 0 00-.16.136l-.02.014c-.05.044-.1.09-.15.137l-.02.016a1.526 1.526 0 00-.14.138l-.03.021c-.04.046-.09.093-.14.141l-.02.018c-.04.048-.09.1-.14.146l-.02.019c-.04.049-.09.1-.13.147l-.02.024a1.592 1.592 0 00-.13.149l-.02.023a1.644 1.644 0 00-.13.155l-.02.019-.12.156-.02.028-.12.155-.02.028a1.1 1.1 0 00-.1.136l-24.65-24.91-.79 3.9-3.09-3.139-3.99 6.277 2.19.476s-2.59 2-2.89 2.093-.89 9.037-.89 9.037l6.67-.571 5.58 7.228 20.28 7.131c.02.069.03.139.05.207l.01.052c.01.056.03.11.04.165l.02.079c.01.046.03.093.04.139l.02.08a.662.662 0 01.04.134l.03.087a.6.6 0 00.04.125l.03.085c.01.044.03.089.04.134l.03.075.06.148a.13.13 0 00.02.058 1.707 1.707 0 00.08.2l.02.048a.984.984 0 00.07.152l.03.072.06.131.03.07a.768.768 0 00.07.128l.03.072c.02.041.05.082.07.123l.04.076.06.114.04.076a1.024 1.024 0 01.08.136l.03.051.12.186.01.029a1.294 1.294 0 01.1.149l.05.068c.03.038.05.075.08.113l.05.07c.02.036.05.072.07.107l.05.066a.81.81 0 01.08.108l.06.071c.03.034.05.068.08.1s.03.043.05.063a1.572 1.572 0 01.11.137l.03.028c.05.055.09.11.14.164l.03.033.12.125.05.055a.853.853 0 00.1.1l.06.063.09.09.06.06c.03.031.07.061.1.091l.06.058c.04.032.07.063.11.095l.05.048a1.745 1.745 0 01.14.121l.03.018c.05.047.11.092.16.137l.05.036.12.1.07.048c.03.027.07.053.1.079s.05.035.08.053a1.048 1.048 0 00.11.075l.06.047.12.075.07.046c.04.025.07.049.11.074l.07.041.15.09.03.021c.07.036.13.071.19.107l.05.023c.05.026.09.052.14.078.03.012.05.024.08.036l.12.063.07.036.12.056.09.039.12.051.08.036.12.053c.03.01.05.02.08.029.05.023.11.045.17.066l.03.011c.07.024.14.049.21.071l.06.023c.05.015.1.032.14.046l.09.027.12.037c.04.009.06.017.1.026l.12.033.09.025c.04.011.09.021.13.031l.08.02c.05.012.1.022.15.032l.07.016c.07.014.14.029.22.042l.22.036.07.01.15.022.08.01.15.016.09.009c.04 0 .09.009.14.013l.08.007q.075.006.15.009h.08l.15.006h44.17a9.57 9.57 0 000-19.139h-9.55v-1.228h12.68v-2.235l10.01 14.548 6.37-8.194 13.82 25.234h-201.89l28.44-45.975 6.51 9.755 29.1-44.524 18.19 27.507 9.61-8 27.49 30.813 4.67-5.509m64.27 27.054l-.77-11.094-3.49 6.656zm-160.22-27.062l-16.25 25.289 20.12-19.963zm35.6-35.484l-13.16 47.91 26.71-27.947zm69.38 43.319h-8.34l-.37-1.228h8.71v1.234zm-10 .148a9.523 9.523 0 011.66-.147zm-7.8 9.422a9.558 9.558 0 011.87-5.71l-1.63 7.866a9.576 9.576 0 01-.24-2.151zm-142.16 31.446h26.75v5.737h-19.5v3.528h18.51v5.365h-18.51v3.913h19.64v5.865h-26.89v-24.403zm28.18 0h10.06l7.45 8.563 7.5-8.563h10.19l-11.62 12.073 12.18 12.335h-10.34l-7.91-8.777-7.85 8.777h-10.6l12.35-12.335zm36.58 3.326a5.352 5.352 0 014.09-3.016q3.075-.685 12.41-.689 4.68 0 6.79.214a10.767 10.767 0 013.38.805 4.573 4.573 0 012.32 2.338 11.877 11.877 0 01.67 4.553c0 .1 0 .514-.02 1.215h-7.35a12.184 12.184 0 00-.15-1.63 1.353 1.353 0 00-.4-.684 4.372 4.372 0 00-2.14-.543c-1.14-.116-2.88-.171-5.2-.171-2.3 0-3.9.049-4.78.153a3.7 3.7 0 00-1.87.6 3.074 3.074 0 00-.92 1.807 33.077 33.077 0 00-.02 7.953 2.6 2.6 0 00.89 1.636 4.009 4.009 0 001.97.647c.9.1 2.5.159 4.78.159q4.23 0 5.64-.14a3.277 3.277 0 001.9-.63c.43-.414.66-1.391.69-2.917h7.36q.06 1.785.06 2.308a9.73 9.73 0 01-.83 4.419 5.07 5.07 0 01-3.59 2.429 44.681 44.681 0 01-9.23.647q-6.9 0-9.83-.269a12.362 12.362 0 01-4.41-1.038 4.658 4.658 0 01-1.98-1.879 8.3 8.3 0 01-.85-3.236q-.165-1.665-.16-6.011 0-4.24.16-6.117a9.349 9.349 0 01.62-2.908zm54.59-3.326l12.63 24.408h-8.35l-2.07-4.132h-15.97l-2.07 4.132h-8.41l12.81-24.408h11.43zm-.37 14.929l-4.66-9.241h-1.46l-4.66 9.241h10.78zm16.08-14.929l8.81 18.274h1.37l8.73-18.274h8.03l-11.78 24.408h-11.31l-11.94-24.408h8.09zm46.17 0l12.63 24.408h-8.35l-2.07-4.132h-15.97l-2.07 4.132h-8.41l12.81-24.408h11.43zm-.37 14.929l-4.66-9.241h-1.46l-4.66 9.241h10.78zm9.16-14.929h29.22v6.225h-10.74v18.183h-7.73V826.44h-10.75v-6.225zm36.66.03a148.111 148.111 0 0121.51 0q4.23.577 5.19 4.065a50.906 50.906 0 010 16.218q-.96 3.487-5.19 4.064a95.277 95.277 0 01-10.68.391 97.279 97.279 0 01-10.83-.391c-2.82-.384-4.54-1.739-5.18-4.064a35.453 35.453 0 01-.65-8.259 33.458 33.458 0 01.65-7.959c.64-2.321 2.36-3.675 5.18-4.06zm1.75 16.047a2.77 2.77 0 002.67 2.13 61.492 61.492 0 006.39.214q4.44 0 5.91-.159a4.3 4.3 0 002.17-.72 2.49 2.49 0 00.87-1.472 15.809 15.809 0 00.23-3.2 29.653 29.653 0 00-.18-3.865 4.125 4.125 0 00-.64-1.855 2.709 2.709 0 00-1.92-.977 63.579 63.579 0 00-6.47-.188 44.023 44.023 0 00-7.04.3 2.394 2.394 0 00-1.79 1.6 18.2 18.2 0 00-.42 4.951 16.5 16.5 0 00.22 3.246z" transform="translate(-1412 -683)"/><path d="M1632.25 776.881l4.67-5.509v-6.68a2.9 2.9 0 012.89-2.92h19.86v-13.279a2.909 2.909 0 012.89-2.919h14.12c11.76-17.2 24.24-17.207 24.24-17.207l.62.255 9.78-1.115.08.7 4.89-.558V726h3.04l8.43 10.272-1.35.513 6.73 11.558-.51.248 2.79 5.666.59.013.41 7.9h3.41s2.43-.264 3.39 5.443 1.65 13.871.78 15.716-8.95 6.671-11.2 7.11-8.95.791-8.95.791l.87-1.932 5.12-1.405-4.69-21.86 1.96-2.036-9.59-21.242-16.25-5.607a25.185 25.185 0 00-10.35 5.151l-2.5 6.469.75.3-4.57 11.846v14.825l-47.68.321m10.94-9.705h-6.48v.966h6.48v-.966zm0 1.961h-6.48v.966h6.48v-.966zm0 1.961h-6.48v.965h6.48v-.965zm0 1.96h-6.48v.963h6.48v-.966zm9.18-5.882h-6.49v.966h6.49v-.966zm0 1.961h-6.49v.966h6.49v-.966zm0 1.961h-6.49v.965h6.49v-.965zm0 1.96h-6.49v.963h6.49v-.966zm24.05-20.339a2.473 2.473 0 00-2.46-2.487h-12.96a2.482 2.482 0 00-2.47 2.487v8.516h10.89v12.116h7V751.9zm3.51-2.675v3.606l1.86-4.833.76.3 1.59-4.114a32.9 32.9 0 00-4.21 5.038zm31.69-20.454l-4.77.544.08.7-5.23.6 9.92 4.083v-5.923zm15.42 20.265l-.57.275-7.05-11.638-.94.356 8.78 16.154 2.31.05zm-42.69 39.738a7.077 7.077 0 01-7.03 7.112h-44.9a7.112 7.112 0 010-14.224h44.9a7.077 7.077 0 017.03 7.109z" transform="translate(-1412 -683)" fill="#ffcd3f" fill-rule="evenodd"/><path id="Shape_3_copy_2" data-name="Shape 3 copy 2" class="cls-2" d="M1647.86 766.352h-6.48v.966h6.48v-.966zm0 1.961h-6.48v.966h6.48v-.966zm0 1.961h-6.48v.965h6.48v-.965zm0 1.96h-6.48v.966h6.48v-.966zm9.18-5.882h-6.49v.966h6.49v-.966zm0 1.961h-6.49v.966h6.49v-.966zm0 1.961h-6.49v.965h6.49v-.965zm0 1.96h-6.49v.966h6.49v-.966z" transform="translate(-1412 -683)"/></svg>