<svg id="Log02.svg" xmlns="http://www.w3.org/2000/svg" width="434" height="205" viewBox="0 0 434 205"><path id="Rectangle_1_copy" data-name="Rectangle 1 copy" fill="#fff" d="M0 0h434v205H0z"/><path id="Shape_2_copy" data-name="Shape 2 copy" d="M1280 805.047h-23.92l-24.04-30.773v30.773h-18.47v-71.032h18.47v29.271l22.53-29.271h22.74l-28.19 33.616zm-85.38.2a35.6 35.6 0 01-23-8.2q-12.93-10.454-12.94-27.3 0-16.863 12.94-27.335a35.815 35.815 0 0123.16-8.2 44.5 44.5 0 0115.88 3.422v21.07a19.9 19.9 0 00-5.08-4.58 19.373 19.373 0 00-10.18-2.841 18.436 18.436 0 00-11.95 4.127q-6.42 5.239-6.42 14.337 0 9.069 6.42 14.3a18.436 18.436 0 0011.95 4.128 19.056 19.056 0 0015.26-7.422v21.071a43.588 43.588 0 01-16.04 3.423zm-55.96-.2a8.914 8.914 0 00-3.34-6.951l15.71-27.171 19.77 34.122h-32.14zm-17.97 0h-32.15l19.77-34.122 15.72 27.171a8.884 8.884 0 00-3.34 6.951zm-75.75-71.032h18.48v55.7h22.22v15.331h-40.7v-71.031zm-27.35 71.032H988v-71.032h27.44q20.07 0 20.08 18.537a18.385 18.385 0 01-2.18 9.322 15.223 15.223 0 01-5.61 5.395c5.63 1.176 9.46 3.457 11.53 6.806a20.643 20.643 0 012.78 10.789c0 5.3-1.51 9.63-4.52 12.943q-6.54 7.249-19.93 7.24zm-3.6-56.46a13.6 13.6 0 00-4.15-.507h-3.36v13.939h3.36c3.17 0 5.44-.778 6.84-2.335a6.893 6.893 0 001.65-4.671c0-3.221-1.45-5.376-4.34-6.426zm3.2 27.823a49.921 49.921 0 00-6.94-.325h-3.77V791h4.08c4.7 0 7.99-.562 9.86-1.648a6.2 6.2 0 003.14-5.7q0-6.191-6.37-7.242zm262.79 36.368H988v-3.857h291.98v3.857zm-283 15.477a4.9 4.9 0 01-1.47.615 8.205 8.205 0 01-1.978.2h-4.429v-12.237h4.229a9.627 9.627 0 012.2.181 4.391 4.391 0 011.8.868 5.278 5.278 0 011.452 2.1 9.322 9.322 0 01.145 5.376 5.886 5.886 0 01-.835 1.792 4.529 4.529 0 01-1.11 1.105zm-.036-8.345a3.145 3.145 0 00-1.542-1.395 6.454 6.454 0 00-2.088-.234h-2.577v9.358h2.613a6.542 6.542 0 001.906-.217 3.1 3.1 0 001.107-.633 4.039 4.039 0 00.89-1.557 7.554 7.554 0 00.327-2.371 5.7 5.7 0 00-.632-2.951zm41.622-3.077v12.237h-1.63v-12.237h1.63zm39.75 8.525l-1.34 3.712h-1.73l4.72-12.237h1.78l4.99 12.237h-1.85l-1.41-3.712h-5.16zm3.38-4.706a34.37 34.37 0 01-.89-2.552 15.9 15.9 0 01-.67 2.352l-1.35 3.6h4.18zm41.47 8.418v-12.237h2.43l2.91 8.671c.27.8.47 1.412.6 1.81.12-.453.34-1.1.65-1.956l2.96-8.525h2.16v12.237h-1.56v-10.228l-3.58 10.228h-1.47l-3.54-10.427v10.427h-1.56zm54.87.217a5.927 5.927 0 01-3.1-.833 5.445 5.445 0 01-2.07-2.28 6.855 6.855 0 01-.71-3.06 6.669 6.669 0 011.65-4.761 5.61 5.61 0 014.23-1.72 5.842 5.842 0 013.07.815 5.312 5.312 0 012.09 2.245 7.841 7.841 0 01-.04 6.607 5.163 5.163 0 01-2.14 2.226 6.112 6.112 0 01-2.976.761zm4.2-6.318a6.36 6.36 0 00-.51-2.606 4.146 4.146 0 00-6.64-1.142 5.243 5.243 0 00-1.24 3.929 4.867 4.867 0 001.2 3.475 4.154 4.154 0 005.99-.017 5.112 5.112 0 001.204-3.639zm48.59-6.136v12.237h-1.67l-6.45-9.594v9.594h-1.56v-12.237h1.67l6.45 9.611v-9.611h1.56zm45.76 11.422a4.633 4.633 0 01-1.45.615 8.294 8.294 0 01-1.98.2h-4.43v-12.237h4.23a9.379 9.379 0 012.18.181 4.188 4.188 0 011.79.868 4.8 4.8 0 011.45 2.1 7.974 7.974 0 01.49 2.915 8.36 8.36 0 01-.32 2.461 5.8 5.8 0 01-.84 1.792 4.172 4.172 0 01-1.116 1.105zm-.02-8.345a3.226 3.226 0 00-1.54-1.395 6.567 6.567 0 00-2.09-.234h-2.58v9.358h2.62a6.7 6.7 0 001.9-.217 2.893 2.893 0 001.09-.633 4.115 4.115 0 00.91-1.557 7.51 7.51 0 00.32-2.371 5.681 5.681 0 00-.626-2.951zm3.414 17.09H988v-3.874h291.98V837z" transform="translate(-917 -683)" fill-rule="evenodd" fill="#1d1d1d"/><path d="M1129.67 805.047l-19.77-34.122-.79-1.393.79-1.394L1129.67 734l19.77 34.141.8 1.394-.8 1.393z" transform="translate(-917 -683)" fill="#ffcd3f" fill-rule="evenodd"/></svg>