<svg id="Log05.svg" xmlns="http://www.w3.org/2000/svg" width="434" height="205" viewBox="0 0 434 205"><path id="Rectangle_1_copy_4" data-name="Rectangle 1 copy 4" fill="#fff" d="M0 0h434v205H0z"/><path id="Shape_5_copy" data-name="Shape 5 copy" d="M1285.94 1080c-8.59 0-12.11-2.12-14.08-8.16-1.31-4.16-1.96-8.57-2.62-11.42-.98-4.41-3.27-6.37-7.36-6.37h-3.77V1080h-13.1v-56.47h21.94c8.02 0 12.69 1.55 15.8 4.25 2.95 2.69 4.09 6.2 4.09 10.36 0 7.1-5.73 12.4-13.83 13.46v.17c8.43 2.12 9.98 7.5 11.13 14.03.74 4.24 1.97 7.26 4.01 9.3a6.078 6.078 0 003.85 1.8v3.1h-6.06zm-12.85-41.37c0-8.33-4.17-11.34-9.74-11.34-4.5 0-5.24.97-5.24 3.18v19.83h4.09c8.27 0 10.89-4.9 10.89-11.67zm-50.49 37.62c9.66 0 11.05-4.49 14-13.22h3.11l-.98 16.97h-39.3v-56.47h37.66v15.1h-3.11c-2.54-8.08-4.01-11.34-12.44-11.34h-6.14c-2.3 0-2.87.57-2.87 2.93v18.04h7.78c5.15 0 6.22-1.39 7.53-7.35h3.11v18.93h-3.11c-1.31-5.95-2.38-7.34-7.53-7.34h-7.78v17.79c0 5.22 2.54 5.96 10.07 5.96zm-63.31 3.75h-18.01v-56.47h21.61c10.65.08 17.52 2.37 22.27 7.02s7.12 11.51 7.12 20.64c0 27.1-20.22 28.81-32.99 28.81zm1.89-52.71c-5.16 0-6.8.4-6.8 2.28v43.09c0 2.61 1.39 3.59 6.55 3.59 8.02 0 16.86-3.51 16.86-25.06 0-15.74-5.65-23.9-16.61-23.9zm-109.04 44.55c-1.31-4.16-1.96-8.57-2.62-11.42-.98-4.41-3.27-6.37-7.36-6.37h-3.77V1080h-13.1v-56.47h21.94c8.02 0 12.69 1.55 15.8 4.25 2.95 2.69 4.09 6.2 4.09 10.36 0 7.1-5.73 12.4-13.83 13.46v.17c8.43 2.12 9.99 7.5 11.13 14.03.74 4.24 1.97 7.26 4.01 9.3a6.1 6.1 0 003.85 1.8v3.1h-6.06c-8.59 0-12.11-2.12-14.08-8.16zm1.23-33.21c0-8.33-4.17-11.34-9.74-11.34-4.5 0-5.24.97-5.24 3.18v19.83h4.09c8.27 0 10.89-4.9 10.89-11.67zm-50.23-11.34h-3.279V1080h-13.1v-52.71h-3.274c-7.531 0-8.6 3.42-11.379 11.58H969v-15.34h48.62v15.34h-3.11c-2.78-8.16-3.84-11.58-11.37-11.58z" transform="translate(-913 -936)" fill-rule="evenodd" fill="#1d1d1d"/><path d="M1119.53 1018.5l14.14-20.5v82h-14.14v-61.5zm-21.21 30.75l14.14-20.5V1080h-14.14v-30.75zm-7.08 10.25v20.5h-14.14z" transform="translate(-913 -936)" fill="#ffcd3f" fill-rule="evenodd"/></svg>