<svg id="Log06.svg" xmlns="http://www.w3.org/2000/svg" width="434" height="205" viewBox="0 0 434 205"><path id="Rectangle_1_copy_3" data-name="Rectangle 1 copy 3" fill="#fff" d="M0 0h434v205H0z"/><path id="Shape_6_copy" data-name="Shape 6 copy" d="M763 1106.34v3.33h-11.26v-23.32H763v3.33h-7.131v6.16h5.667v3.33h-5.667v7.17H763zm-54.278-44.87l-20.58 5.48v-13.25l-16.463 20.09.427-2.02 3.822-3.39a1.142 1.142 0 00-.254-1.7l-10.938-9.7 2.827-1.45 4.116-9.13-13.717 4.56-13.555-12.02 1.548-1.67-2.513.81-5.324-4.73.634-.65 6.174-4.56 12.862-5.94-9.261-2.28 8.746-6.39 10.29-12.33-6.174 2.74 5.581-8.342.207.123 2.83-3.881 19.036 21.92.771-1.6s14.92 20.31 15.178 20.77 2.572 10.96 2.572 10.96l2.83-1.83 40.386 37.67h-1.7zm-117.059-60.8c.054-.06.112-.12.176-.18a2.522 2.522 0 013.25 0 1.879 1.879 0 01.481 2.26 2.022 2.022 0 00-.672-1.92 2.675 2.675 0 00-3.235-.16zm-19.515 28.08a68.217 68.217 0 0114.97-24.69l1.181 1.05a82.84 82.84 0 00-16.151 23.64zm13.552-29.64a1.342 1.342 0 01.458-1.2l4.206-3.732a1.753 1.753 0 011.357-.407.787.787 0 00-.329.174l-5.5 4.877a.667.667 0 00-.192.288zm9.926-4.454l6.143 5.454a1.321 1.321 0 01.3 1.67 1.363 1.363 0 00-.452-.79l-6.022-5.347a1.776 1.776 0 00-2.294 0l-6.5 5.767a1.38 1.38 0 00-.46.84 1.327 1.327 0 01.3-1.66l6.691-5.934a1.776 1.776 0 012.289 0zm29.489-12.911a98.908 98.908 0 00-26.631 14.334l-1.184-1.049a82.22 82.22 0 0127.81-13.285zm-26.1 23.835l-3.907 3.47zm-15.179 37.85h1.286l16.207-13.92 1.543.91 7.791-7.56 5.972 5.29-.515 1.36 1.34-.62 1.439 1.27-7.409 8.02-7.2 2.74v4.57l7.2-2.74-19.551 15.52h-10.8l-4.116 7.76h7.718l-19.551 4.57-15.434 2.74-20.072 5.73q-.261-.93-.5-1.86l11.7-13.46s19.293-7.76 28.554-7.53zm-48.717 42.92v23.32h-3.9v-17.66h-.075l-3 17.66h-3.464l-3-17.66h-.08v17.66H518v-23.32h5.892l2.627 16.69h.081l2.627-16.69h5.892zm15.05-.33a6.51 6.51 0 014.654 1.53 5.694 5.694 0 011.614 4.33v12.26a5.694 5.694 0 01-1.614 4.33 7.843 7.843 0 01-9.308 0 5.69 5.69 0 01-1.614-4.33v-12.26a5.69 5.69 0 011.614-4.33 6.51 6.51 0 014.649-1.53zm-2.139 18.35c0 1.53.713 2.3 2.139 2.3s2.139-.77 2.139-2.3v-12.72c0-1.53-.713-2.3-2.139-2.3s-2.139.77-2.139 2.3v12.72zm21.167.03a2.373 2.373 0 00.544 1.74 2.555 2.555 0 003.116 0 2.378 2.378 0 00.544-1.74v-18.05h3.978v17.79a5.729 5.729 0 01-1.576 4.34 7.657 7.657 0 01-9.158 0 5.729 5.729 0 01-1.577-4.34v-17.79h4.129v18.05zm26.309-4.09h.076v-13.96h3.678v23.32h-4.241l-4.955-17.02h-.075v17.02h-3.678v-23.32h5.18zm24.508-10.63h-4.316v19.99h-4.129v-19.99h-4.316v-3.33h12.761v3.33zm-24.2-9.95h-26.767l11.569-5.94h15.434l6.174-6.84 22.637 2.28 13.891-2.28-16.72 8.21-11.576-1.37zm40.971 6.62l4.279 23.32h-4.129l-.75-4.63v.06h-4.692l-.75 4.57h-3.829l4.279-23.32h5.592zm-1.088 15.59l-1.839-11.52h-.075l-1.8 11.52h3.717zm17.489 7.73h-4.129v-23.32h4.129v23.32zm-26.972-73.01l-9.07 4.26 6.936-6.15zm4.661 4.14l1.106.98-3 .97zm-20.419 21.12l21.093-9.13 5.8-6.25 9.4 8.35-24.721 9.32zm45.418 1.06l-5.289 1.23 4.232-2.17zm8.129 7.21l-23.717 9.54h-9.528l11.081-6.85 15.5-8.6zm-40.665-59.65l-2.76 7.25-2.457-2.18zm11.814 4.93l.642.57 13.119-10.5 1.337.84-2.237 6.69-5.66 6.16-6.791 11.86-5.928-5.26 1.915-4.08zm38.561 52.84l-4.206 3.73a1.728 1.728 0 01-1.644.25 1.5 1.5 0 00.356-.22l4.289-3.81c.631-.56.466-1.62-.367-2.36l-68.907-61.15a.681.681 0 00.3-.16.6.6 0 00.2-.41l69.607 61.77c.837.74 1.003 1.8.372 2.36zm-2.25 32h.075v-13.96h3.678v23.32h-4.241l-4.954-17.02h-.075v17.02h-3.678v-23.32h5.179zm27.359 2.73h.078l2.628-16.69h5.892v23.32h-3.9v-17.66h-.075l-3 17.66h-3.453l-3-17.66h-.075v17.66h-3.6v-23.32h5.883zm21.806 6.63H716.5v-23.32h4.129v23.32zm18.277-9.36h.075v-13.96h3.678v23.32h-4.241l-4.954-17.02h-.075v17.02h-3.678v-23.32h5.179z" transform="translate(-423 -936)" fill-rule="evenodd" fill="#1d1d1d"/><path d="M602.105 999.3a114.639 114.639 0 0130.278-19.172 77.339 77.339 0 00-35.7 14.365l-1-.888a1.776 1.776 0 00-2.294 0l-.042.037a3.067 3.067 0 00-3.835.1l-3.86 3.425a2.286 2.286 0 00-.108 3.4l-.041.04a1.336 1.336 0 000 2.04l1 .88c-14.526 15.59-16.187 31.68-16.187 31.68 6.512-12.2 15.832-21.69 21.6-26.87l.848.75a1.776 1.776 0 002.294 0l.036-.03 11.732 10.41-4.828 4.69-1.311-.78-17.765 15.27h-1.337l-14.48 12.85a72.86 72.86 0 00-14.5 3.03 70.443 70.443 0 01-.469-8.11c0-43.31 39.556-81.41 88.352-81.41s88.351 38.1 88.351 81.41c0 1.91-.081 3.81-.234 5.69l-17.33-16.16c-1.008-4.34-1.187-4.66-1.463-5.15-.166-.3-.394-.7-15.484-21.25l-5.513-7.51-1.124 2.33-18.082-20.816-4 5.492-2.356-1.394-13.273 12.688-1.468-.934-12.534 10.034-3.173-2.82-3.419-.25-5.237-3.72-9.859 9.58-11.381-10.1.036-.04a1.325 1.325 0 000-2.03" transform="translate(-423 -936)" fill="#ffcd3f" fill-rule="evenodd"/></svg>