<svg xmlns="http://www.w3.org/2000/svg" width="586" height="500" viewBox="0 0 586 500"><path id="I3.svg" d="M1253 1072.07c0 47.53-94.35 73.17-183.13 73.17a472.406 472.406 0 01-53.48-2.96 12.194 12.194 0 112.77-24.23 449.23 449.23 0 0050.71 2.8c96.88 0 158.71-28.89 158.71-48.78v-12.19c0-3.02-1.45-5.97-3.46-8.62-34.56 21.63-96.13 33.01-155.25 33.01-7.23 0-14.38-.16-21.39-.46a12.2 12.2 0 111.07-24.37c6.65.29 13.45.44 20.32.44 74.19 0 127.82-16.94 148.87-33.81a1.431 1.431 0 01.15-.11c6.35-5.13 9.69-10.24 9.69-14.86v-12.2c0-3.018-1.45-5.967-3.46-8.616-34.56 21.634-96.13 33-155.25 33-4.55 0-9.08-.06-13.55-.18a12.206 12.206 0 01-11.87-12.52 12.01 12.01 0 0112.54-11.861q6.375.171 12.88.173c74.19 0 127.82-16.939 148.87-33.805l.15-.118c6.35-5.121 9.69-10.233 9.69-14.857v-12.189c0-3.019-1.45-5.968-3.46-8.617-34.56 21.631-96.13 33.007-155.25 33.007q-11.94 0-23.48-.555A12.192 12.192 0 011034.78 949a12.428 12.428 0 0112.78-11.6c7.29.352 14.76.531 22.31.531 74.19 0 127.82-16.94 148.87-33.806l.15-.117c6.35-5.122 9.69-10.233 9.69-14.858v-12.199c0-3.025-1.45-5.979-3.47-8.632-34.56 21.625-96.13 33-155.24 33a472.242 472.242 0 01-55.83-3.239 12.193 12.193 0 112.91-24.212 448.427 448.427 0 0052.92 3.061c96.88 0 158.71-28.892 158.71-48.781v-23.071c-33.78 23.1-97.57 35.264-158.71 35.264-61.18 0-125-12.182-158.77-35.311a12.209 12.209 0 01-24.35-1.274v-36.585c0-47.525 94.35-73.171 183.12-73.171S1253 719.646 1253 767.171v60.975c0 8.9-3.31 17.037-9.28 24.379 7.45 9.31 9.28 18.073 9.28 24.426v12.195c0 8.9-3.31 17.028-9.27 24.367 7.44 9.306 9.27 18.063 9.27 24.414v12.195c0 8.9-3.31 17.028-9.27 24.367 7.44 9.3 9.27 18.063 9.27 24.413v12.2c0 8.89-3.31 17.03-9.27 24.36 7.44 9.31 9.27 18.07 9.27 24.42v12.19zm-183.13-353.68c-96.874 0-158.7 28.892-158.7 48.781s61.829 48.78 158.7 48.78 158.71-28.891 158.71-48.78-61.83-48.781-158.71-48.781zm-36.62 292.68c0 100.87-82.144 182.93-183.125 182.93S667 1111.94 667 1011.07s82.144-182.924 183.125-182.924 183.125 82.061 183.125 182.924zM850.125 852.537c-87.509 0-158.708 71.115-158.708 158.533s71.2 158.54 158.708 158.54 158.705-71.12 158.705-158.54-71.196-158.533-158.705-158.533zm12.208 243.9v24.39h-24.416v-24.39a36.645 36.645 0 01-36.625-36.59v-12.19h24.416v12.19a12.213 12.213 0 0012.209 12.2h24.416a12.213 12.213 0 0012.209-12.2v-19a12.171 12.171 0 00-8.346-11.57L826.329 1016a36.523 36.523 0 01-25.037-34.7v-6.812a36.645 36.645 0 0136.625-36.588v-24.39h24.416v24.39a36.645 36.645 0 0136.625 36.586v12.195h-24.416v-12.193a12.214 12.214 0 00-12.209-12.2h-24.416a12.214 12.214 0 00-12.209 12.2v6.812a12.166 12.166 0 008.346 11.563l39.867 13.277a36.539 36.539 0 0125.037 34.71v19a36.645 36.645 0 01-36.625 36.59z" transform="translate(-667 -694)" fill="#232323" fill-rule="evenodd"/></svg>