<svg xmlns="http://www.w3.org/2000/svg" width="674" height="500.219" viewBox="0 0 674 500.219"><path id="I2.svg" d="M1254.87 1109.81h-14.04v.17c0 38.62-31.55 70.04-70.33 70.04s-70.33-31.42-70.33-70.04v-.17H960v-28.06h84.25V721.836H693.208V910.27h-28.083v-216.5h407.2v84.187h97.5a42.124 42.124 0 0134.8 18.369l44.46 131.076h5.78c25.2 0 42.13 18.115 42.13 45.074v95.24a42.157 42.157 0 01-42.125 42.094zm-84.37 42.14a41.971 41.971 0 10-42.25-41.97 42.151 42.151 0 0042.25 41.97zm98.42-179.47c0-11.291-4.73-17.011-14.05-17.011h-22.3l-51.81-144.409c-1.95-2.748-6.29-5.036-10.93-5.036h-97.5v275.726h33.83a70.417 70.417 0 01128.68 0h20.03a14.058 14.058 0 0014.05-14.03v-95.24zm-182.55-31.042h81.42L1144.9 855.9l23.37-15.566 30.44 96.855V969.5h-112.34v-28.062zm-238.7-14.032h98.291V1194H623V927.406h224.667zm-28.084 28.063h-70.211v28.062h70.208v-28.062zm-168.5 210.471h266.789V955.469h-70.208v56.121H721.292v-56.121h-70.209v210.471zm28.084-56.13h28.08v28.06h-28.083v-28.06zm84.25 28.06h-28.087v-28.06h28.084v28.06z" transform="translate(-623 -693.781)" fill="#232323" fill-rule="evenodd"/></svg>