<svg xmlns="http://www.w3.org/2000/svg" width="333" height="500" viewBox="0 0 333 500"><path id="I1.svg" d="M1052.53 1666.99V1717h61.22a20.844 20.844 0 0120.81 20.83v31.25a20.846 20.846 0 0120.81 20.84V1842H845.625v-52.08a20.853 20.853 0 0120.813-20.84v-31.25A20.844 20.844 0 01887.25 1717h61.219v-50.01C882.066 1645.07 834 1582.38 834 1508.67c0-91.9 74.693-166.67 166.5-166.67s166.5 74.77 166.5 166.67c0 73.71-48.07 136.4-114.47 158.32zm-165.28 70.84v31.25h113.25v20.84H866.438v31.25h268.122v-31.25h-113.25v-20.84h92.44v-31.25h-92.44V1717h10.41v-44.62a166.671 166.671 0 01-62.439 0V1717h31.219v20.83H887.25zm113.25-375c-80.333 0-145.687 65.42-145.687 145.84s65.354 145.83 145.687 145.83 145.69-65.42 145.69-145.83-65.36-145.84-145.69-145.84zm90.27 133.56l-41.69 38.17 13.06 54.24a10.413 10.413 0 01-15.64 11.27l-45.83-28.65-45.84 28.65a10.329 10.329 0 01-5.508 1.58 10.4 10.4 0 01-10.122-12.85l13.059-54.24-41.7-38.17a10.419 10.419 0 016.474-18.09l53.524-2.8 20.377-53.85a10.407 10.407 0 0119.472 0l20.36 53.85 53.53 2.8a10.416 10.416 0 016.474 18.09zm-67.87-.44a10.413 10.413 0 01-9.19-6.72l-13.04-34.48-13.046 34.48a10.417 10.417 0 01-9.186 6.72l-35.488 1.86 27.886 25.53a10.444 10.444 0 013.1 10.13l-8.536 35.43 29.765-18.6a10.417 10.417 0 0111.015 0l29.76 18.6-8.54-35.43a10.462 10.462 0 013.1-10.13l27.88-25.53z" transform="translate(-834 -1342)" fill="#232323" fill-rule="evenodd"/></svg>