<svg xmlns="http://www.w3.org/2000/svg"><symbol id="arrow-left" viewBox="0 0 158 256"><path d="M158 30.187L127.849 0 0 128l127.851 128L158 225.81 60.3 128z" fill-rule="evenodd" class="path-irkuxli9s"/></symbol><symbol id="arrow-right" viewBox="0 0 158 256"><path d="M0 30.187L30.151 0 158 128 30.151 256 0 225.81 97.7 128z" fill-rule="evenodd" class="path-ififqw41p"/></symbol><symbol id="phone" viewBox="0 0 24 24"><path d="M15.05 5A5 5 0 0119 8.95M15.05 1A9 9 0 0123 8.94m-1 7.98v3a2 2 0 01-2.18 2 19.79 19.79 0 01-8.63-3.07 19.5 19.5 0 01-6-6 19.79 19.79 0 01-3.07-8.67A2 2 0 014.11 2h3a2 2 0 012 1.72 12.84 12.84 0 00.7 2.81 2 2 0 01-.45 2.11L8.09 9.91a16 16 0 006 6l1.27-1.27a2 2 0 012.11-.45 12.84 12.84 0 002.81.7A2 2 0 0122 16.92z" data-changed="true" class="path-idauvtz81"/></symbol><symbol id="geo" viewBox="0 0 512 511"><path d="M204.5 458.83v51.88l-12.539-10.13a840.77 840.77 0 01-94.781-92.709C32.7 333.8 0 267.311 0 210.255V204.6C0 91.783 91.738 0 204.5 0S409 91.783 409 204.6v5.655c0 4.791-.25 9.658-.71 14.582l-40-36.5c-8.19-83.2-78.517-148.412-163.79-148.412-90.758 0-164.6 73.876-164.6 164.678v5.655c0 96.415 124.164 213.135 164.6 248.575zm122.7-28.67h59.85v-59.885H327.2v59.885zM204.5 119.766a84.835 84.835 0 11-84.793 84.834 84.911 84.911 0 0184.793-84.834zm0 39.921a44.913 44.913 0 1044.891 44.913 44.952 44.952 0 00-44.891-44.913zm280.61 243.342l-11.22-10.239v64.09a54.173 54.173 0 01-54.1 54.12H293.461a54.173 54.173 0 01-54.1-54.12v-64.09l-11.218 10.239-26.891-29.491L356.63 231.722 512 373.538zm-51.12-46.66l-77.36-70.608-77.364 70.608V456.88a14.213 14.213 0 0014.2 14.2H419.79a14.216 14.216 0 0014.2-14.2V356.369zm0 0" fill-rule="evenodd" class="path-if9i0bh3m"/></symbol></svg>